<?xml version="1.0" standalone="no"?><!DOCTYPE svg PUBLIC "-//W3C//DTD SVG 1.1//EN" "http://www.w3.org/Graphics/SVG/1.1/DTD/svg11.dtd"><svg t="1770865901222" class="icon" viewBox="0 0 1024 1024" version="1.1" xmlns="http://www.w3.org/2000/svg" p-id="19196" xmlns:xlink="http://www.w3.org/1999/xlink" width="512" height="512"><path d="M0 0m76.8 0l870.4 0q76.8 0 76.8 76.8l0 870.4q0 76.8-76.8 76.8l-870.4 0q-76.8 0-76.8-76.8l0-870.4q0-76.8 76.8-76.8Z" fill="#E5F8E5" p-id="19197"></path><g transform="translate(512 512) scale(0.7) translate(-512 -512)"><path d="M512 64a448 448 0 0 1 448 448h-64a384 384 0 1 0-477.184 372.608l-15.552 62.08A448 448 0 0 1 512 64z M954.816 900.288l-186.624-369.792A38.08 38.08 0 0 0 736.384 512a36.352 36.352 0 0 0-31.808 18.496l-186.624 369.792a40.768 40.768 0 0 0-1.408 39.808 37.12 37.12 0 0 0 33.152 19.904h371.968a37.12 37.12 0 0 0 33.152-19.904 40.832 40.832 0 0 0 0-39.808z M704 832h64v64h-64zM704 640h64v128h-64z M416.64 640.064a31.552 31.552 0 0 1-28.992-18.752 32.32 32.32 0 0 1 15.36-44.352l109.056-83.648V290.112C512 271.36 523.2 256 541.952 256c18.816 0 34.176 15.36 34.176 34.112v225.28a31.552 31.552 0 0 1-18.816 29.056L433.792 634.88c-6.912 5.12-12.032 5.12-17.152 5.12z" fill="#02BA02"></path></g></svg>